<?xml version="1.0" encoding="utf-8"?>
<!-- Generator: Adobe Illustrator 15.0.2, SVG Export Plug-In . SVG Version: 6.00 Build 0)  -->
<!DOCTYPE svg PUBLIC "-//W3C//DTD SVG 1.1//EN" "http://www.w3.org/Graphics/SVG/1.1/DTD/svg11.dtd">
<svg version="1.1" id="svg2" xmlns:svg="http://www.w3.org/2000/svg"
	 xmlns="http://www.w3.org/2000/svg" xmlns:xlink="http://www.w3.org/1999/xlink" x="0px" y="0px" width="500px" height="500px"
	 viewBox="0 0 500 500" enable-background="new 0 0 500 500" xml:space="preserve">
<g>
	<path fill-rule="evenodd" clip-rule="evenodd" d="M241.735,20.487c4.228,0.008,8.939,0.011,13.54,0.306
		c0.92,0.059,1.836,0.129,2.742,0.214C268.5,21.5,277.5,20.5,286.424,25.42c0.7,0.515,1.388,1.035,2.061,1.383
		c0.674,0.349,1.334,0.527,1.98,0.358c2.585,1.471,4.948,8.532,7.059,4.76c2.11,4.854,3.968,3.848,5.543,6.351
		c1.575,0.984,2.868,6.287,3.848,8.132c3.645-0.952,7.351-1.755,11.085-2.404c37.349-6.485,77.608,2.487,88.698,32.505
		c0.555,1.5,1.036,3.054,1.44,4.661c0.404,2.986,0.732,3.763,0.979,4.981c-0.428-0.292-0.991-0.626-1.471-0.911
		C398.5,84.5,389.5,82.5,380.73,80.1c-0.803-0.17-1.604-0.292-2.403-0.381c-5.598-0.629-11.128,0.278-16.496-3.228
		c-1.164-0.623-1.973-1.191-2.996-1.637c-0.678-0.335-1.355-0.477-2.035-0.205c-2.718,0.697-5.458-2.501-8.247-2.412
		c0.623-0.09,1.635-4.946,2.931-2.885c1.296,1.693,2.877-2.778,4.64-1.089c-2.211-3.412-4.647,0.03-7.251-1.661
		c-2.603,0.832-5.371-2.004-8.245-0.617c-2.873-0.074-5.851-0.039-8.873,0.043c-9.065,0.245-18.524,0.903-26.731,0.247
		c-3.23,6.397,8.906,11.107,5.677,23.846c5.137,1.23,15.021-2.523,17.033,1.987c-0.542,2.581-1.998,4.944-4.061,6.973
		c-2.063,1.101-4.73,8.896-7.694,4.966c-2.964-0.698-6.224-1.87-9.471,2.258c-3.246-2.502-6.479,1.712-9.391-1.151
		c-2.911,0.238-5.499-2.746-7.454-5.263c-3.912-5.035-5.295-13.278-1.674-25.666c-6.619-3.943-14.34,5.403-20.818,7.948
		c3.352,14.841-0.908,29.844-9.465,37.756c-12.248-1.106-10.09-19.264-5.678-27.82c-28.763-0.169-33.96-6.871-34.963-6.701
		c-34.042,5.762-2.398-2.986-2.89-5.222c16.239-4.146,36.166-4.42,43.531-17.884c-0.456-3.495-3.256-4.529-7.57-3.974
		c0.742-1.705,1.096-3.817,1.385-5.997c0.042-0.949,0.079-1.872,0.266-2.239C253.5,39.5,243.5,35.5,237.618,29.298
		c-0.325-0.56-0.559-0.88-0.731-0.777c-0.12-4.015,0.459-3.538,1.015-3.902c0.278,1.46,0.792,1.199,1.052,0.24
		c0.13-0.479,0.697-1.281,1.435-2.118S241.71,21.142,241.735,20.487z"/>
	<path fill-rule="evenodd" clip-rule="evenodd" d="M198.763,79.74c3.249,5.691,4.195,11.708,3.396,17.575
		c-0.399,2.933-1.235,6.532-2.437,8.627c-1.203,3.29-2.771,2.438-4.638,8.044c-1.866,1.888-4.03,5.441-6.421,7.104
		c-2.391,3.417-5.01,6.569-7.787,5.806c-2.777-0.126-5.712,6.915-8.736,4.151c-3.023,1.331-6.136-1.126-9.267,2.14
		c-1.789,0.089-3.585-0.96-5.374,0.182c-0.447,0.785-0.896,1.406-1.364,1.824C146.5,135.5,139.5,131.5,142.5,120.5c0,1,0,1,0,2
		c0-1,0-2,0.298-3.202c0.066,0.283,0.117-0.798,0.142-2.031c0.024-1.233,0.023-2.619-0.014-2.944
		c-0.074-1.152-0.29-1.478-0.726-2.01s-1.091-1.273-2.043-3.253c0.291-0.95,0.588-1.899,0.892-2.8
		c0.29-0.538,0.501-1.011,0.766-1.491C148.5,98.5,157.5,95.5,165.709,90.614c0.739-0.253,1.485-0.472,2.236-0.7
		c0.751-0.228,1.508-0.465,2.271-0.754C179.363,85.681,189.245,82.877,198.763,79.74z"/>
	<path fill-rule="evenodd" clip-rule="evenodd" d="M269.062,113.899c5.005-0.751,9.169-0.619,12.729,0.148
		c3.561-1.605,6.517,5.624,9.105,3.953c2.589,1.961,4.812,9.615,6.904,6.264c2.093,0.698,4.056,5.426,6.127,7.08
		c2.07,4.066,4.249,2.831,6.772,6.401c-1.951,2.895-4.047,5.16-6.313,5.692c-2.266,1.727-4.704,3.274-7.341,4.612
		c-7.912,4.013-17.619,6.142-29.875,5.593c-2.021-1.853-0.59-7.33-5.68-5.961c4.652-3.727,12.967-3.609,18.928-5.961
		c0.99-2.272,2.468-4.032,3.669-6.083s2.126-4.392,2.009-7.827c-0.899-4.163-3.147-3.761-5.727-4.586
		C275.211,121.573,268.728,121.315,269.062,113.899z"/>
	<path fill-rule="evenodd" clip-rule="evenodd" fill="#FFFFFF" d="M346.66,145.693c0.576,5.241-3.951,5.125-7.571,5.961
		C340.735,148.745,341.923,145.356,346.66,145.693z"/>
	<path fill-rule="evenodd" clip-rule="evenodd" d="M303.129,159.603c-6.932,9.073-19.346,21.018-28.39,7.949
		C281.916,163.781,292.389,153.021,303.129,159.603z"/>
	<path fill-rule="evenodd" clip-rule="evenodd" d="M308.807,173.513c-0.368,8.224-5.991,10.931-11.354,13.91
		c4.619,5.36,12.339-2.828,20.818,0c3.17,16.1-9.132,41.346-32.175,29.807c-0.829,6.831,0.747,11.137,1.893,15.896
		c-12.149-0.972-19.287-28.295-7.57-35.768c7.447,0.625-2.129,11.225,3.785,15.897c9.751-3.009,17.582-8.035,22.711-15.897
		c-3.329-5.428-11.353,6.417-15.142,0c-7.981,0.337,0.033-3.052,0-5.961c-4.554-2.504-10.059-4.012-13.248-7.949
		C286.438,177.847,294.836,172.754,308.807,173.513z"/>
	<path fill-rule="evenodd" clip-rule="evenodd" d="M242.564,227.165c-1.412,6.725-8.299,15.175-15.141,9.936
		C228.436,229.552,235.487,228.345,242.564,227.165z"/>
	<path fill-rule="evenodd" clip-rule="evenodd" d="M323.948,282.803c1.893,0,3.784,0,5.678,0c4.106,6.521,4.292,15.301,1.893,23.847
		C322.091,301.652,326.36,294.615,323.948,282.803z"/>
	<g>
		<path fill-rule="evenodd" clip-rule="evenodd" d="M202.008,429.42c-5.432-4.916-0.244-37.189-19.243-39.451
			c4.601-5.801,14.826-2.919,21.56,1.42c2.245,1.444,4.102,3.052,5.234,4.553c3.305,1.65,5.211,1.662,6.549-2.957
			c1.338-2.085,2.109-4.751,3.146-6.436c1.036-1.687,2.335-2.394,4.731-0.563c-0.138,2.172-0.242,1.523-0.33,6.854
			c-0.088,6.039-0.159-4.799-0.225,7.408c-0.067-5.814-0.129-1.642-0.202,7.785c-0.073-4.834-0.156,0.091-0.264,7.974
			c-0.107,4.381-0.238,2.991-0.406,7.979c-0.169,6.835-0.376,5.453-0.634,7.801c0.182,0.18-0.573,4.175-1.905,2.85
			c-1.333,2.248-3.247,1.452-5.382,2.078c-2.135,5.186-4.494,1.011-6.717-0.976C205.696,434.649,203.606,432.67,202.008,429.42z"/>
		<path fill-rule="evenodd" clip-rule="evenodd" d="M399.563,342.218c-3.147,0.437-6.109,0.733-8.909,0.905
			s-5.439,0.218-7.943,0.155c-2.503-3.613-4.872-0.586-7.13-0.493c-2.258-2.623-4.405-2.825-6.468-1.048
			c-2.063-0.43-4.04-0.938-5.96-1.505c-3.836-1.133-7.432-2.507-10.993-3.989c1.403-5.728,5.003-9.921,9.629-12.565
			c2.024-1.157,4.244-3.651,6.563-3.19c0.454,0.084,1.112,0.269,1.382,0.438c4.473,0.637,8.388-0.904,12.684-0.993
			c0.315,0.108,0.907,0.244,1.234,0.45c0.654,0.414,1.301,1.034,1.935,1.925c2.537,1.024,4.892,2.442,6.918,4.256
			C396.559,330.19,399.302,335.403,399.563,342.218z"/>
		<path fill-rule="evenodd" clip-rule="evenodd" d="M331.55,336.243c6.432,6.373,5.596,39.506-12.365,39.827
			c-6.05-2.121-8.268-7.944-16.488-7.966c-0.662-7.587-6.896-17.278-2.061-23.896C313.104,351.037,324.882,345.284,331.55,336.243z"
			/>
		<path fill-rule="evenodd" clip-rule="evenodd" d="M267.659,370.096c0.136,7.317,0.214,4.148-0.039,6.932
			c-0.253,3.573-0.835-4.485-2.022,5.016c1.521,4.642,3.24,3.216,5.135,5.316c1.894-1.166,3.963,0.256,6.181,3.986
			c2.219,5.119,4.587-0.21,7.08,2.79c2.492,0.743,5.109,1.307,7.828,1.715c29.901,4.472,71.949-10.151,93.315-15.799
			c-3.287-8.11-12.521-10.469-22.672-11.947c19.48-12.985,47.177,2.193,61.831,11.947c-1.475,13.842-18.188,12.961-22.672,23.896
			c-31.691,6.487-77.154,17.045-111.054,11.392c-2.607-0.435-5.146-0.966-7.606-1.602c-2.459-1.121-4.839-0.297-7.126-2.232
			c-2.287,1.399-4.484-0.44-6.577-2.919c-2.093-0.721-4.084-4.017-5.96-3.661c-1.876-1.671-3.638-5.294-5.273-4.458
			c-1.635-1.624-3.143-3.392-4.516-5.311c-1.447-2.025-2.742-4.219-3.868-6.593c-1.128-0.127-2.089-4.532-2.869-7.667
			c-0.78-10.849-1.38-7.176-1.786-8.811c-0.443-3.241-2.44-3.354-4.75-5.233c-2.309-2.008-4.927-3.286-6.612-4.26
			c-1.685-1.388-2.435-2.806-1.004-4.445c2.172-6.443,4.382-2.201,6.593-2.798c2.21,4.369,4.421,1.48,6.595,0.079
			c2.172-4.116,4.307,4.662,6.368,2.232c2.061,1.021,4.045,2.286,5.915,3.668c1.872,1.381,3.63,2.882,5.236,4.385
			C264.936,367.216,266.393,368.341,267.659,370.096z"/>
	</g>
	<path fill-rule="evenodd" clip-rule="evenodd" d="M365.587,207.293c0.508,9.145-7.939,8.888-9.464,15.897
		c1.605,4.687,4.661-5.475,11.356-1.987c-2.412,6.08-10.838,5.843-13.248,11.922c6.294,6.026,6.26-6.642,15.14-3.974
		c0.715,9.53-10.982,9.372,0,13.909c0.551,8.527-8.919,6.534-9.463,13.91c0.469,2.158,3.763,1.349,3.786,3.975
		c7.056-0.539,2.599-13.167,13.247-9.936c4.954,5.436-3.049,8.475-3.784,13.91c8.38,9.085,24.855,9.671,32.175,19.871
		c-4.13,7.635-24.898,3.716-32.175,1.987c-5.766,8.518-6.122,22.717-17.034,25.831c-5.324-0.371-8.063-3.456-7.57-9.936
		c-8.773,8.674-9.081,26.233-22.712,29.807c-1.004-18.154-15.934-21.688-18.927-37.754c-2.686-0.17-5.359-0.328-5.678,1.987
		c-6.525-3.64-2.851-14.925-1.893-21.858c-0.826-2.445-2.422-4.082-5.678-3.975c-1.962,3.967,1.541,16.62-3.786,21.857
		c3.017,9.421,14.379,10.075,11.356,25.834c-8.435-1.745-11.965-8.635-17.033-13.911c-6.597,1.024-2.776,12.983-3.785,19.871
		c-14.973,7.334-30.948,1.603-41.639-5.96c-3.794,10.588-6.322,22.507-20.819,21.858c-12.167-12.186,1.923-23.646,0-41.729
		c-12.688,1.02-26.804,14.6-35.96,1.985c0.505-26.106,25.927-1.779,37.853-15.896c-7.819-16.524,4.488-30.24-1.893-49.678
		c4.755,1.631,10.14,2.601,9.463,9.936c4.152-2.265,7.734-5.128,15.141-3.975c-0.618,10.611-12.519,9.376-15.141,17.883
		c2.854,3.948,13.223-8.594,18.927-1.986c-5.391,4.939-7.428,13.397-18.927,11.924c0,3.974,0,7.948,0,11.921
		c11.25-4.748,13.624-18.813,32.175-15.896c-10.877,9.111-21.351,18.65-32.175,27.818c-1.304,5.345,3.913,3.842,5.678,5.963
		c10.135-1.945,8.851-15.878,20.819-15.898c-3.13,9.3-7.939,16.836-11.356,25.834c2.89,5.576,9.497,7.251,15.141,9.936
		c3.091-0.039-3.033-11.23,1.893-13.911c7.323-1.727,6.733,4.854,11.355,5.961c17.305-9.234,10.33-49.435,7.571-71.535
		c12.648,1.294,12.671,15.841,15.142,27.819c4.901-2.801,12.807-2.451,11.356-11.922c-0.587-2.697-4.739-1.648-7.57-1.987
		c-1.666-6.385,6.236-2.723,5.677-7.948c-0.038-5.921-8.928-2.549-11.356-5.962c9.125-4.844,15.686-11.928,24.605-11.922
		c2.425,7.845-5.515,4.808-5.679,9.936c6.446,3.83-1.283,22.544,13.249,17.884c-4.12,6.27-12.02,8.575-13.249,17.884
		c7.951,0.117,34.563-7.401,37.854,7.947c2.81-3.674,3.626-9.44,3.785-15.896c-2.599-3.896-11.597-1.072-15.142-3.975
		c1.521-5.027,7.791-5.068,11.356-7.948c-1.889-15.073,5.034-27.521,0-39.742C355.491,212.592,356.193,205.38,365.587,207.293z
		 M354.231,294.727c8.097-0.772,9.015-9.082,9.463-17.884c-3.155,0-6.31,0-9.463,0C354.231,282.803,354.231,288.766,354.231,294.727
		z M316.378,306.649c4.908,2.133,9.281,4.827,17.034,3.973c3.231-9.306,11.918-22.198,3.784-31.794
		C313.589,279.208,309.349,286.506,316.378,306.649z M221.745,322.545c8.039,1.153,8.779-5.354,11.356-9.936
		c-3.859-0.584-3.711-5.377-7.57-5.96C222.946,310.56,223.724,317.998,221.745,322.545z"/>
	<path fill-rule="evenodd" clip-rule="evenodd" d="M111.598,150.995c-9.436,4.724-23.942,1.987-26.748,15.396
		c-2.76-1.747-6.682-2.082-9.775-3.423c-3.089-7.727,1.519-10.368,3.707-15.303c-7.628-1.899-8.901,15.809-16.702,11.292
		c-0.62,2.693,0.787,4.852-2.758,6.051c1.722,1.807,2.267,5.046,2.214,9.01c-2.629,1.601-3.499,0.29-7.057,1.374
		c-0.699-6.08-0.108-10.987,3.031-13.582c-3.375-10.445,4.201-16.56,6.91-26.396c-5.985-9.529-14.292-16.237-17.153-29.562
		c2.716-7.432,10.799-6.147,16.931-7.971c10.12-3.007,17.175-8.242,25.068-5.256c2.299,0.87,3.82,4.683,6.67,4.497
		c6.032,7.91,6.515,21.845,14.724,28.913c-0.161,5.595,1.535,8.936,3.969,11.378C113.221,141.58,112.693,146.545,111.598,150.995z"
		/>
	<path fill-rule="evenodd" clip-rule="evenodd" d="M97.991,225.942c-4.628,7.776-10.5,14.969-11.706,24.197
		c-0.579,1.283-1.099,2.606-1.513,4.01c-0.829,2.805-1.238,5.916-0.865,9.617c0.266,2.63,1.127,4.929,2.294,7.052
		c0.583,1.063,1.244,1.436,1.944,2.108c0.233,0.224,0.514,0.542,0.752,0.866c2.997,5.13,6.912,9.754,8.048,15.292
		c0.078,0.284,0.161,0.507,0.21,0.515c0.313,2.39,0.439,3.509,0.428,6.043c-0.011,3.099-0.159,6.519-0.397,6.173
		c-0.237,4.012-0.563,1.085-0.929,6.235c-0.366,5.016-0.772,3.789-1.169,6.235c-0.265,1.743-0.525,2.757-0.767,4.124
		c-0.242,1.37-0.466,2.729-0.656,4.08c-0.381,1.921-0.629,6.124-0.631,7.942c-0.001,4.247,0.244,5.197,0.854,7.534
		c0.61,3.434,1.583,2.716,3.035,6.97c1.453,2.216,3.384,4.311,5.911,6.264c29.348,24.825,47.47,61.437,90.847,71.536l18.926,3.973
		c59.525,6.1,129.119,13.482,183.587-1.987c17.706-5.027,39.449-19.529,54.887-29.807c17.701-11.783,36.196-23.048,45.424-37.754
		c1.7,12.207,0.579,23.181-3.786,33.781c-10.317,25.06-47.046,64.333-66.242,73.523c-31.418,15.039-64.021,9-94.633,7.948
		c-70.362-2.418-139.282-14.719-181.694-43.718c-17.269-11.808-43.555-44.965-71.92-47.689
		c-14.825-1.424-28.891,5.353-41.744,10.024c-0.642,0.234-1.282,0.301-1.918,0.319c-0.318,0.01-0.774,0.068-1.185,0.123
		c-1.669,0.462-3.137,0.978-4.604,2.003c-1.468-2.054-4.403-2.054-5.872-0.513c0,0.513-0.979,1.028-0.979,2.055
		c-5.382-1.542-14.189,2.056-14.434-6.3c-0.056-0.758-0.125-1.257-0.166-1.55c-0.123-0.878-0.216-0.394-0.279-2.702
		c-0.042-0.616-0.071-1.39-0.087-2.218c-0.016-0.828-0.038-2.369-0.011-2.553c-0.19-2.656-0.19-4.711-0.19-7.28v0.514
		c0-3.082-0.979-6.165-0.489-9.247c0,0.515,0,0.515,0,1.028c0-3.082-1.957-7.192-0.489-7.706c3.603-1.47,7.533-1.567,11.579-1.381
		c0.449,0.02,0.972,0.006,1.418,0.03c2.17,0.323,3.638-1.219,5.106-1.219c14.679-0.513,29.356-2.566,44.035-5.649
		c3.425-0.513,7.339-0.513,10.599-0.339c0.298-0.144,0.596-0.367,0.894-0.624c1.491-1.287,2.989-3.409,4.495-0.598
		c-0.996-2.974-1.732-5.207-2.264-6.813c-0.266-0.844-0.481-1.602-0.652-2.662c-0.171-2.016-0.298-2.781-0.388-4.474
		c-0.09-3.474-0.143-5.397-0.166-4.092c-0.023-1.461-0.016-5.605,0.015-3.341c0.03-8.659,0.083-2.588,0.152-4.734
		c0.069,0.434,0.155-1.972,0.249-2.978c0.094,0.193,0.198-0.457,0.303-3.951c0.106,0.917,0.212,1.113,0.315-4.011
		c0.137-4.63,0.264-0.592,0.367-5.439c0.102-2.131,0.179-5.861,0.214-5.534c0.006-0.869,0.011-1.58,0.014-2.163
		c-0.021-0.612-0.064-1.121-0.098-1.51c-0.349-2.73-2.795-3.757-4.263-4.271c-3.425-1.541-5.382-3.596-7.829-5.649
		c-4.893-3.598-6.85-8.733-9.785-13.869c-1.468-2.569-2.446-6.679-1.836-10.332c-0.039-0.382-0.067-0.704-0.097-0.911
		c-0.062-0.414-0.106-0.414-0.133,0.271c-0.105-4.392,0.079-5.014,0.593-8.102c0.514-3.854,1.36-5.828,2.577-8.764
		c-1.104-0.883-2.201-1.53-3.296-1.985c-1.095-0.454-2.189-0.715-3.288-0.827c-0.367-0.037-0.847-0.058-1.32-0.074
		c-1.518-0.1-3.475-0.1-4.453,0.927c-4.893,3.083-11.253,1.028-16.146,4.11c0.979-4.11,0.979-7.706,3.301-10.595
		c0.188-0.364,0.384-0.738,0.585-1.124c0.604-1.157,1.266-2.41,1.979-3.751c1.427-4.132,3.063-3.099,4.871-5.48
		c1.806-3.556,3.784-2.856,5.895-4.077c2.11-1.13,4.353-2.032,6.689-2.711c7.011-2.04,14.872-2.081,22.55-0.284
		c0.64,0.149,1.6,0.561,2.278,0.784c5.183,3.607,11.054,5.663,17.138,7.133C97.983,225.946,97.987,225.949,97.991,225.942z"/>
</g>
<path d="M453.784,336.339c-2.933-6.114-9.367-12.405-19.131-18.699l-0.048-0.034c-11.956-8.784-21.498-19.105-28.362-30.673
	l-0.113-0.19l-0.026-0.222c-0.058-0.463-0.039-1.606,1.357-2.218l0.736-0.325l0.45,0.692c2.632,4.058,6.782,7.16,12.34,9.223
	c7.071,1.042,15.157,2.622,24.047,4.702c0.529-2.137,0.782-3.854,0.753-5.106l-0.008-0.339l0.185-0.279
	c0.044-0.099,0.328-0.974-0.026-5.457c-0.841-3.197-1.726-7.962-2.631-14.164l-1.743-14.255c-1.486-8.511-4.099-22.423-7.76-41.348
	l-0.012-0.074l-8.513-69.648l0.218-0.327c0.116-0.173,0.38-0.768,0.337-2.557l0.001-0.082c0.585-11.429,0.695-15.053,0.69-16.118
	c-1.074-1.05-1.809-2.306-2.186-3.743l-3.09-2.741l-0.048-0.396c-0.07-0.574,0.054-1.229,0.391-2.022
	c-1.063-0.941-2.444-2.167-4.141-3.675c-1.617,0.276-2.155,0.742-2.333,1.007l-0.112,0.167l-0.165,0.109
	c-1.069,0.71-2.317,1.256-3.713,1.625l-1.069,0.282l-0.413-3.378l0.046-0.19c0.296-1.227,0.953-2.645,1.958-4.225
	c-1.227-2.215-1.92-3.653-2.175-4.499l-0.352-1.171l4.962-0.669l3.536,1.45l3.274-2.492l0.473,0.159
	c1.227,0.415,2.951,1.614,5.27,3.668c1.821,1.616,3.313,2.693,4.44,3.207l2.408-0.325c0.545-0.074,1.053-0.11,1.509-0.11
	c1.296,0,2.252,0.289,2.924,0.882c1.341,1.193,2.215,2.668,2.598,4.387l0.012,0.051l0.006,0.053c0.222,1.81,0.657,3.298,1.294,4.427
	c1.127,1.003,2.099,1.864,2.915,2.586l0.095,0.084l0.072,0.106c1.281,1.895,2.382,3.479,3.27,4.707l0.378,0.524l-0.293,0.58
	c-2.854,5.632-4.67,10.317-5.395,13.927l-0.019,0.089l-0.032,0.084c-2.669,6.9-2.975,18.96-0.909,35.845l2.738,22.404
	c0.382,3.124,0.993,5.732,1.814,7.755l0.054,0.132l1.278,10.459l-0.018,0.134c-0.526,4.12-0.327,10.627,0.591,19.339l2.482,20.306
	c1.082,5.146,3.563,13.104,7.38,23.653c3.538,10.426,5.795,18.894,6.717,25.191l0.019,0.127l-0.012,0.127
	c-0.2,2.147-0.807,4.711-1.807,7.619c-0.215,2.131-0.867,4.339-1.938,6.566c-1.072,6.481-3.061,11.066-5.916,13.632l-0.948,0.854
	L453.784,336.339z M410.451,261.66c-5.532-6.736-9.841-14.276-12.808-22.41l-0.055-0.152l-0.008-0.162
	c-0.309-6.263,0.445-12.747,2.237-19.269c0.178-0.74,0.327-2.566-0.019-6.877l-0.879-7.188l0.008-0.104
	c0.373-5.155,1.027-9.331,1.946-12.426c-2.5-3.439-4.459-5.727-5.825-6.802l-0.146-0.116l-4.647-7.833
	c-1.383-2.469-2.167-4.052-2.468-4.982c-0.521-0.973-1.153-1.795-1.883-2.446l-0.683-0.608l0.517-0.768
	c0.499-0.743,1.213-1.293,2.123-1.633l0.785-0.294l0.401,0.768c0.528,1.011,1.516,2.164,2.936,3.423l0.083,0.074l0.066,0.091
	c2.45,3.401,5.257,5.203,8.567,5.495c0.579-0.554,1.472-0.987,2.705-1.316l0.874-0.233l0.294,0.895
	c1.406,4.299,3.078,7.98,4.98,10.968c0.669-1.597,1.231-3.454,1.682-5.544c0.046-1.951,0.153-4.091,0.319-6.366l0.01-0.132
	l0.04-0.125c0.294-0.893,0.571-1.795,0.827-2.683c0.067-1.079,0.117-2.209,0.15-3.363l0.004-0.069
	c0.188-2.029,0.192-4.411,0.015-7.078l-0.161-2.428l1.822,1.619c0.185-0.167,0.419-0.321,0.715-0.45l1.184-0.518l0.306,2.485
	l-0.018,0.136c-0.421,3.288-1.12,6.663-2.078,10.033c-0.222,3.418-0.618,6.508-1.183,9.188c-0.056,2.568-0.002,4.873,0.159,6.854
	l3.107,25.417c0.256,2.084,0.172,3.92-0.25,5.461c0.944,16.309,1.213,28.442,0.795,36.063c-0.148,1.589-0.498,3.634-1.845,4.149
	c-0.643,0.658-1.832,1.155-3.76,1.588l-0.567,0.127L410.451,261.66z"/>
<path d="M200.804,213.819c-1.363-2.434-2.525-4.98-3.455-7.567l-0.5-1.39h6.947c0.485,0,1.014,0.11,1.579,0.328
	c2.316-1.729,4.409-3.609,6.226-5.597c2.757-3.015,5.07-5.231,6.877-6.588c0.576-0.605,1.466-1.253,2.719-1.978l0.107-0.062
	l0.119-0.032c0.705-0.193,1.433-0.591,2.165-1.185c1.812-1.778,4.021-5.425,6.566-10.841l0.789-1.727
	c-1.237,0.672-2.778,1.403-4.605,2.184l-10.986,6.007c-2.251,1.507-3.824,2.441-4.808,2.855l-0.046,0.02l-0.047,0.014
	c-6.046,1.825-10.683,3.818-13.782,5.925l-1.51,1.028v-4.217c0-0.982,0.248-2.055,0.756-3.267c-0.552-1.325-0.686-1.833-0.739-2.127
	c-0.233-1.018-0.241-1.764-0.01-2.323c0.035-0.73,0.217-1.391,0.542-1.974l-0.294-0.321l0.244-0.62
	c0.21-0.533,0.556-1.007,1.032-1.417c-0.12-0.517-0.203-1.127-0.252-1.84l-0.062-0.906l0.849-0.176
	c5.442-1.13,9.038-2.326,10.688-3.553l0.045-0.034l0.048-0.027c3.36-1.946,5.423-4.886,6.303-8.987v-3.083
	c-0.216-1.928-0.211-3.575,0.016-4.897l0.023-0.137l0.058-0.126c1.049-2.295,1.506-3.063,1.78-3.409
	c0.453-0.858,0.847-1.726,1.172-2.579l0.049-0.129l0.08-0.111c1.282-1.77,2.236-3.557,2.838-5.311
	c0.14-0.359,0.242-0.743,0.312-1.16c-0.3-0.328-1.646-1.802-1.646-1.802v-0.413c0-0.252,0.022-0.495,0.067-0.727
	c-0.201-0.036-0.435-0.069-0.706-0.097c-3.104,0.875-5.455,2.311-6.989,4.269l-1.734,2.212v-3.746l0.273-0.298c0,0,0,0,0,0
	c-0.005,0,0.096-0.185,0.158-0.793l0.036-0.349l0.231-0.253c0.053-0.058,0.191-0.234,0.46-0.725
	c-0.778-1.804-1.158-3.318-1.158-4.614v-0.644l0.551-0.281c1.168-0.594,2.288-0.94,3.327-1.029l0.04-0.004h0.04
	c0.561,0,1.299,0.225,2.346,0.72c0.658-0.671,1.234-1.151,1.747-1.456c0.679-0.665,1.689-1.032,3.081-1.123l0.452-0.029l0.313,0.343
	c1.045,1.142,1.716,1.72,2.129,2.011h0.57c1.502,0,2.61,0.183,3.389,0.56l0.168,0.081l1.102,1.208l0.071,0.172
	c0.816,2.008,1.179,2.608,1.301,2.775c1.701,0.932,3.009,1.729,3.888,2.368l1.405,1.022l-1.552,0.754
	c-1.689,0.821-3.383,2.986-5.035,6.438c-0.857,2.81-1.422,4.502-1.728,5.173c-1.067,2.413-3.089,6.203-6.004,11.258
	c-2.041,3.606-3.837,6.534-5.361,8.74c3.538-2.23,7.175-3.5,10.836-3.782l0.071-0.002h1.703c1.215,0,1.5-0.225,1.502-0.228
	l0.268-0.223l0.357-0.015c1.775,0,2.672-0.137,3.122-0.263l0.657-1.438c0.691-1.963,1.002-3,1.143-3.545l-0.725-0.265l1.888-2.065
	c1.086-1.187,1.95-1.981,2.653-2.44c0.557-0.667,0.865-1.667,0.916-2.979l-5.564-6.087h3.572c2.982,0,5.111,0.514,6.503,1.571
	c1.089,0.717,1.663,2.021,1.707,3.878c0.811,1.833,1.184,2.714,1.305,3.224c0.346,0.459,1.097,1.056,2.709,1.619l0.23,0.081
	l0.168,0.183c2.383,2.607,2.941,3.525,3.152,3.989l0.438,0.954l-0.92,0.43c-0.579,0.27-1.33,0.446-2.294,0.537
	c-0.59,0.237-1.442,0.392-2.591,0.472c-2.467,0.897-2.975,1.033-3.202,1.054c-3.05,1.568-6.322,6.031-9.733,13.277
	c-0.5,1.175-1.384,2.788-2.61,4.761l-0.044,0.063c-0.907,1.241-2.489,2.819-4.839,4.825c-3.42,2.653-5.651,4.97-6.673,6.92
	l0.819,0.896c2.094-1.161,4.645-2.047,7.607-2.641c2.172-0.536,3.585-0.846,4.279-0.937c0.764-0.17,1.737-0.472,2.906-0.899
	c-0.066-0.123-0.135-0.255-0.206-0.395c-0.847-1.85-1.542-3.223-2.088-4.118l-0.315-0.518l0.286-0.537
	c0.466-0.876,1.437-1.922,3.408-1.922h0.125l0.122,0.033c0.946,0.259,1.758,0.616,2.414,1.063l0.094,0.064l0.079,0.086
	c0.913,0.999,1.484,1.437,1.815,1.629l2.507,0.914l0.026,0.012c3.575,1.547,5.794,3.022,6.783,4.505
	c0.326,0.409,0.512,1.067,0.607,2.146c0.217,0.435,0.369,1.159,0.448,2.617l0.015,0.265l-0.676,1.478
	c1.209,1.491,1.998,3.204,2.348,5.101l0.056,0.302l-0.111,0.284c-0.267,0.679-0.87,1.52-1.903,2.648
	c-1.959,2.145-2.567,3.458-2.731,4.182l-0.022,0.093l-0.038,0.088c-0.403,0.944-0.628,1.445-0.77,1.728
	c-0.032,1.075-0.254,1.806-0.692,2.286l-0.706,0.774l-1.033-1.129c-0.142,0.108-0.271,0.228-0.39,0.356l-1.24,1.356l-0.418-1.829
	c-0.128-0.56-0.653-1.849-2.429-4.811l-0.151-0.251v-0.296c0-0.399-0.117-0.891-0.347-1.46l-0.033-0.079l-1.321-5.787v-0.122
	c0-1.039-0.16-2.045-0.477-3.003c-1.145,0.261-2.865,0.667-5.136,1.212l-0.04,0.01L235,204.114
	c-3.416,0.513-6.261,1.538-8.457,3.044c-0.275,0.272-0.609,0.471-0.995,0.595c-0.375,0.329-1.401,1.163-4.575,3.618l-0.135,0.104
	l-0.162,0.052c-1.728,0.551-3.016,0.866-3.936,0.962c-0.463,0.149-1.247,0.624-2.431,2l-0.139,0.162l-0.189,0.088
	c-0.017,0.008-0.437,0.219-1.227,1.854c-0.536,1.258-1.001,2.09-1.443,2.573l-0.089,0.097l-0.109,0.07
	c-0.884,0.564-1.783,1.055-2.673,1.46l-0.069,0.031l-0.074,0.021c-0.654,0.179-1.35,0.7-2.069,1.55l-0.976,1.155L200.804,213.819z"
	/>
<path d="M179.072,242.248c-3.33,5.525-5.254,9.433-5.762,11.715c-0.398,1.236-0.614,3.684-0.64,7.347
	c0.506,2.074,0.897,5.199,1.179,9.374c1.239,6.757,2.747,17.167,4.517,31.229c1.462,13.726,2.396,24.501,2.796,32.336
	c-0.848,5.436-2.309,14.557-4.38,27.358c-1.04-0.487-1.938-1.153-2.695-1.998c-1.023,0.037-1.888,0.416-2.595,1.14
	c-0.657-6.776-3.872-15.729-9.638-26.861c-4.769-7.324-9.699-15.173-14.793-23.537c-3.639-4.058-6.425-8.837-8.356-14.354
	c0.039,1.223-0.523,1.941-1.686,2.153l-3.235,8.485c0.04,1.22-0.21,2.624-0.742,4.212c0.068,2.09,0.124,3.833,0.169,5.225
	c-1.645,3.373-6.119,9.811-13.411,19.31c-2.106,2.692-3.5,4.834-4.179,6.427c-1.062-1.179-1.682-2.203-1.853-3.071
	c-0.455-0.508-0.783-1.544-0.978-3.104c-0.017-0.523,0.253-1.227,0.809-2.121c-0.038-1.218-0.669-2.594-1.886-4.118l-0.135-4.182
	c-0.067-2.09,0.458-3.85,1.584-5.288c-0.506-2.074-0.89-4.847-1.146-8.329c0.068,2.091,1.314,4.49,3.741,7.192
	c6.739-8.61,10.511-18.51,11.322-29.699c0.287-4.719,0.42-9.603,0.405-14.661l1.145-18.875c0.304-4.195,0.381-10.824,0.236-19.888
	c-0.544-3.291-0.996-8.16-1.347-14.6c1.482-8.423,2.089-16.814,1.819-25.176c-6.032-10.248-9.168-16.763-9.401-19.545
	c-0.455-0.507-0.784-1.542-0.978-3.104c0.422-0.538,0.992-0.904,1.719-1.107c1.059,1.186,1.969,2.199,2.729,3.042l3.573,1.965
	l3.437-2.214c0.438-0.016,1.031,0.315,1.787,0.983c3.234-8.485,6.839-14.539,10.817-18.172c0.42-0.538,1.844-1.635,4.278-3.291
	c0.981-1.252,2.129-1.991,3.437-2.214c0.4-1.232,0.646-2.64,0.742-4.211c-0.067-2.09,0.48-3.156,1.651-3.198l3.505-0.125
	c2.23,1.145,4.318,2.462,6.268,3.962c2.15-1.293,4.172-2.063,6.065-2.308c1.82,2.028,3.628,3.71,5.426,5.039
	c3.678,5.277,6.43,9.017,8.255,11.215c-0.438,0.015-0.722,0.378-0.842,1.077c0.017,0.522,0.342,1.557,0.977,3.104
	c-4.241,9.044-6.823,19.599-7.75,31.664c-0.782,7.527-0.986,19.391-0.607,35.595c0.017,0.522,0.331,1.209,0.943,2.059
	c-0.422,0.538-0.649,2.639-0.675,6.301c0.456,0.507,0.758,0.848,0.911,1.015 M137.219,250.014c0.506,2.076,1.45,4.134,2.831,6.176
	c5.055-6.457,8.108-11.445,9.166-14.973c0.399-1.232,0.634-2.987,0.707-5.257l-0.134-4.181c-0.067-2.09,0.436-4.548,1.516-7.377
	c-1.039-0.486-1.938-1.149-2.695-1.997c-1.006,0.559-1.859,1.287-2.562,2.184c-0.438,0.016-1.325-0.301-2.662-0.952
	c-0.016-0.522-0.903-0.838-2.662-0.952c-3.37,4.305-4.92,10.638-4.649,18.999c0.083,2.613,0.163,5.055,0.234,7.315
	C136.764,249.507,137.067,249.848,137.219,250.014z M139.411,290.741c5.458,6.083,9.412,10.826,11.861,14.226l13.546,12.074
	l2.528-3.229l1.616-4.242c-1.106-2.575-1.76-4.646-1.954-6.209c0.711-9.612,1.061-16.948,1.044-22.008
	c-1.971-6.731-3.06-13.317-3.268-19.763c-5.104,4.89-9.846,12.033-14.221,21.43c-1.039-0.485-1.927-0.802-2.662-0.949
	c-0.438,0.014-1.012,0.388-1.719,1.106L143.353,277c-1.04-0.486-2.241-1.49-3.606-3.011c-0.939,2.649-1.356,7.895-1.247,15.737
	C138.955,290.234,139.258,290.575,139.411,290.741z M153.495,210.723c2.23,1.142,4.319,2.462,6.269,3.962
	c0.71-9.613,1.339-17.311,1.887-23.085c0.8-6.829,1.441-14.175,1.92-22.04c-0.455-0.507-1.365-1.521-2.729-3.042l-2.729-3.042
	c-2.106,2.691-4.645,5.574-7.615,8.642c-5.15,3.498-8.826,7.466-11.019,11.9l7.278,8.112c-1.684,2.152-3.607,6.058-5.762,11.713
	c1.77,0.46,3.847,1.433,6.235,2.917c1.036,0.487,1.935,1.152,2.695,1.997C150.982,209.941,152.176,210.599,153.495,210.723z
	 M146.115,253.884c0.506,2.074,1.438,3.785,2.797,5.132c1.685-2.152,4.549-3.994,8.594-5.537c0.437-0.016,1.03,0.315,1.786,0.982
	l3.505-0.125c-0.039-1.216,0.218-2.271,0.774-3.166c-0.017-0.522-0.05-1.567-0.101-3.136c-0.04-1.215-0.368-2.25-0.978-3.104
	l-3.235-18.718c-6.806,6.52-11.491,15.408-14.051,26.657C145.661,253.376,145.963,253.719,146.115,253.884z"/>
<path d="M329.757,193.91c-1.362-2.434-2.524-4.979-3.455-7.567l-0.5-1.39h6.948c0.484,0,1.014,0.11,1.578,0.328
	c2.317-1.728,4.408-3.609,6.226-5.597c2.758-3.015,5.07-5.231,6.877-6.587c0.576-0.605,1.467-1.253,2.72-1.978l0.106-0.063
	l0.119-0.032c0.706-0.192,1.433-0.591,2.164-1.185c1.813-1.778,4.021-5.425,6.565-10.841l0.79-1.727
	c-1.238,0.672-2.777,1.403-4.606,2.184l-10.984,6.007c-2.251,1.507-3.825,2.441-4.808,2.855l-0.047,0.02l-0.048,0.014
	c-6.046,1.824-10.683,3.817-13.782,5.925l-1.51,1.027v-4.216c0-0.983,0.248-2.055,0.757-3.266c-0.553-1.326-0.687-1.833-0.74-2.128
	c-0.232-1.018-0.24-1.764-0.009-2.322c0.034-0.73,0.217-1.39,0.542-1.974l-0.294-0.32l0.244-0.62
	c0.21-0.533,0.556-1.007,1.031-1.417c-0.119-0.517-0.202-1.126-0.252-1.84l-0.062-0.905l0.848-0.176
	c5.443-1.13,9.038-2.326,10.689-3.554l0.044-0.033l0.048-0.028c3.361-1.945,5.424-4.886,6.304-8.986v-3.083
	c-0.217-1.928-0.212-3.575,0.016-4.897l0.023-0.137l0.058-0.125c1.049-2.295,1.506-3.063,1.78-3.41
	c0.451-0.859,0.846-1.726,1.171-2.579l0.05-0.129l0.08-0.11c1.281-1.771,2.236-3.558,2.838-5.311
	c0.141-0.359,0.242-0.742,0.312-1.161c-0.301-0.328-1.646-1.801-1.646-1.801v-0.413c0-0.253,0.021-0.495,0.067-0.727
	c-0.201-0.036-0.435-0.069-0.706-0.096c-3.104,0.875-5.455,2.311-6.989,4.268l-1.734,2.212v-3.745l0.273-0.298v0
	c-0.005,0,0.096-0.186,0.157-0.793l0.037-0.349l0.23-0.253c0.053-0.057,0.19-0.233,0.46-0.725c-0.778-1.804-1.158-3.317-1.158-4.614
	v-0.644l0.552-0.281c1.168-0.594,2.288-0.941,3.326-1.03l0.04-0.003h0.039c0.562,0,1.3,0.225,2.347,0.72
	c0.658-0.671,1.233-1.151,1.747-1.457c0.68-0.665,1.689-1.033,3.08-1.123l0.453-0.03l0.313,0.343
	c1.046,1.143,1.715,1.72,2.129,2.011h0.569c1.503,0,2.61,0.184,3.39,0.56l0.168,0.082l1.103,1.207l0.07,0.173
	c0.816,2.009,1.181,2.608,1.303,2.776c1.7,0.931,3.009,1.728,3.888,2.368l1.404,1.022l-1.551,0.754
	c-1.69,0.821-3.384,2.986-5.035,6.438c-0.857,2.809-1.423,4.502-1.729,5.173c-1.065,2.413-3.088,6.204-6.003,11.258
	c-2.041,3.606-3.837,6.534-5.362,8.74c3.538-2.229,7.177-3.5,10.836-3.782l0.072-0.002h1.702c1.216,0,1.5-0.226,1.502-0.228
	l0.268-0.223l0.357-0.015c1.776,0,2.673-0.137,3.123-0.262l0.656-1.438c0.69-1.963,1.002-3,1.143-3.544l-0.726-0.265l1.889-2.064
	c1.086-1.187,1.95-1.981,2.653-2.44c0.556-0.667,0.864-1.668,0.916-2.98l-5.565-6.086h3.572c2.983,0,5.111,0.513,6.504,1.57
	c1.089,0.716,1.662,2.021,1.707,3.878c0.81,1.833,1.184,2.715,1.304,3.223c0.347,0.46,1.097,1.056,2.71,1.62l0.229,0.08l0.168,0.183
	c2.384,2.607,2.941,3.525,3.155,3.989l0.437,0.954l-0.922,0.43c-0.578,0.27-1.329,0.446-2.293,0.537
	c-0.591,0.237-1.442,0.392-2.591,0.472c-2.467,0.898-2.975,1.034-3.202,1.055c-3.05,1.567-6.322,6.03-9.733,13.277
	c-0.501,1.175-1.384,2.788-2.611,4.761l-0.043,0.064c-0.907,1.24-2.49,2.818-4.84,4.825c-3.42,2.652-5.652,4.97-6.673,6.92
	l0.819,0.895c2.093-1.16,4.644-2.046,7.606-2.641c2.172-0.537,3.584-0.846,4.278-0.937c0.764-0.169,1.738-0.471,2.907-0.899
	c-0.066-0.124-0.135-0.255-0.206-0.395c-0.847-1.85-1.543-3.223-2.088-4.119l-0.316-0.518l0.286-0.537
	c0.468-0.877,1.438-1.922,3.407-1.922h0.125l0.121,0.033c0.946,0.259,1.759,0.617,2.414,1.063l0.096,0.065l0.078,0.085
	c0.913,0.999,1.484,1.437,1.815,1.629l2.507,0.914l0.025,0.011c3.574,1.548,5.794,3.022,6.783,4.506
	c0.325,0.408,0.512,1.067,0.607,2.146c0.217,0.434,0.37,1.158,0.448,2.617l0.014,0.264l-0.675,1.478
	c1.21,1.491,1.999,3.204,2.347,5.101l0.056,0.301l-0.111,0.284c-0.266,0.679-0.869,1.52-1.9,2.647
	c-1.961,2.145-2.568,3.458-2.734,4.182l-0.021,0.094l-0.038,0.087c-0.402,0.944-0.628,1.445-0.77,1.728
	c-0.031,1.075-0.255,1.806-0.693,2.287l-0.706,0.773l-1.031-1.128c-0.143,0.107-0.273,0.227-0.391,0.355l-1.24,1.356l-0.418-1.829
	c-0.128-0.56-0.653-1.849-2.43-4.811l-0.15-0.251v-0.296c0-0.399-0.117-0.891-0.348-1.46l-0.032-0.079l-1.322-5.787v-0.122
	c0-1.039-0.16-2.045-0.476-3.003c-1.145,0.261-2.866,0.667-5.136,1.212l-0.041,0.01l-0.039,0.006
	c-3.416,0.514-6.261,1.538-8.458,3.044c-0.275,0.271-0.608,0.471-0.995,0.594c-0.375,0.329-1.4,1.164-4.574,3.619l-0.135,0.104
	l-0.162,0.052c-1.727,0.551-3.016,0.866-3.935,0.961c-0.464,0.149-1.247,0.624-2.431,2.001l-0.14,0.162l-0.189,0.088
	c-0.018,0.008-0.437,0.218-1.228,1.854c-0.535,1.257-1,2.089-1.442,2.573l-0.089,0.097l-0.109,0.07
	c-0.885,0.564-1.783,1.056-2.673,1.461l-0.069,0.032l-0.072,0.02c-0.654,0.179-1.351,0.701-2.068,1.55l-0.978,1.155L329.757,193.91z
	"/>
</svg>
